mtllib head_basemesh.mtl
o head_basemesh.obj
v -1.593128 1.203467 -1.379700
v -1.472602 1.205541 0.151493
v -1.639320 0.175783 -1.604604
v -1.785796 1.515365 -0.648127
v -2.381907 0.902471 0.156683
v -2.605081 1.151226 -0.758965
v -2.460450 0.707961 -1.410610
v -2.135954 0.216875 -1.444865
v -1.289854 1.725187 -0.981908
v -1.469142 1.602535 -0.412497
v -1.036981 1.365797 0.053573
v -0.760176 1.087860 -1.556163
v -0.569757 0.905956 0.781109
v -0.819170 0.171484 -1.647624
v -0.425876 4.693633 -0.179289
v -0.429394 1.212554 0.433257
v -0.609894 1.640837 -1.294582
v -0.498480 4.110585 -0.864843
v -0.742356 3.966648 -0.551130
v -0.760695 4.336942 -0.124043
v -0.429451 1.929302 -1.083980
v -0.386027 3.189350 -0.827013
v -0.946558 1.896895 -0.766000
v -0.619986 3.219419 -0.578349
v -1.005148 1.719810 -0.274556
v -0.765712 3.284419 -0.182864
v -0.714388 1.662304 0.100399
v -0.373975 1.640873 0.357251
v -0.320171 2.230484 -0.926663
v -0.616929 2.236972 -0.674770
v -0.665197 2.161597 -0.130271
v -0.515261 2.072830 0.262446
v -0.248605 2.000824 0.393121
v -0.327495 2.929103 -0.731976
v -0.537694 2.991617 -0.511224
v -0.705103 2.873598 -0.002595
v -0.789644 3.613482 0.001326
v -0.432854 4.715321 0.290703
v -0.751929 4.382584 0.333723
v -0.767730 3.525496 0.410190
v -0.691320 3.230356 0.507764
v -0.744951 2.914863 0.346871
v -0.395254 2.263001 0.446867
v -0.192264 2.124552 0.558973
v -0.734167 3.201117 0.734283
v -0.657181 2.812768 0.600609
v -0.873839 3.583859 -0.016205
v -0.885084 3.286310 -0.181365
v -0.821130 2.931473 0.019895
v -0.729496 2.985462 0.249413
v -0.718597 3.224686 0.341912
v -0.764616 3.447783 0.292318
v -0.631058 2.687135 -0.143650
v -0.693281 3.277265 -0.324842
v -0.783877 3.842212 -0.118161
v -0.778745 3.655445 0.625983
v -0.698067 2.633372 0.204432
v -0.698817 2.821468 0.168678
v -0.761329 2.905632 0.145265
v -0.788029 3.253087 0.069720
v -0.834625 3.556755 0.172945
v -0.785492 3.625499 0.211006
v -0.822284 3.895385 0.281822
v -0.488157 3.571475 -0.961955
v -0.711273 3.525308 -0.628982
v -0.790970 3.464506 -0.157144
v -0.708160 3.074147 -0.094748
v -0.761963 3.368254 0.476623
v -0.709428 3.074895 0.466474
v -0.773785 3.387639 0.685957
v -0.889409 3.456608 -0.169024
v -0.843967 3.095801 -0.094287
v -0.725517 3.103332 0.316307
v -0.723499 3.338624 0.334876
v -0.624138 3.034219 -0.257140
v -0.754755 3.510705 -0.298777
v -0.770325 3.123797 0.093249
v -0.798063 3.376666 0.075026
v -0.878048 3.522829 -0.002249
v -0.889524 3.425500 -0.076410
v -0.873147 3.277371 -0.083561
v -0.844428 3.124020 -0.019319
v -0.835086 3.008302 0.045269
v -0.793623 3.009263 0.135461
v -0.758561 3.030364 0.205931
v -0.742356 3.111189 0.205931
v -0.739704 3.226097 0.203740
v -0.757177 3.332916 0.210314
v -0.775746 3.407815 0.215273
v -0.812596 3.477968 0.121967
v -0.719347 4.283365 -0.462207
v -0.424896 4.502460 -0.601993
v -0.515203 2.687096 -0.520682
v -0.308407 2.633185 -0.779725
v -0.597034 2.409903 0.304428
v -0.642245 3.208042 1.032886
v -0.607529 3.385372 1.003245
v -0.557820 2.538697 0.685265
v -0.466359 2.575609 1.040037
v -0.521258 2.777749 0.997017
v -0.355175 3.137572 1.321340
v -0.368612 3.340977 1.205774
v -0.608798 3.009550 1.023083
v -0.654644 3.031564 0.702335
v -0.332051 2.748373 1.295159
v -0.324612 2.916388 1.346022
v -0.565143 3.616324 1.019046
v -0.571545 3.895603 1.014202
v -0.674308 4.100333 0.792181
v -0.295720 2.542845 1.222844
v -0.311521 4.086166 1.198738
v -0.348140 3.550813 1.315342
v -0.417399 4.425245 0.902557
v -0.417053 2.394855 1.026427
v -0.444906 2.305494 0.769691
v -0.208411 2.080373 0.893215
v -0.230901 2.206187 1.135419
v 0.000000 0.927201 -1.454322
v 0.000000 0.632433 0.904056
v 0.000000 0.134035 -1.639435
v 0.000000 1.054937 0.508571
v 0.000000 4.165090 -0.961148
v 0.000000 2.586058 -0.824937
v 0.000000 2.186289 -0.931160
v 0.000000 4.755997 -0.202471
v 0.000000 3.521646 1.398730
v -1.547571 0.286312 0.675000
v -2.041091 0.447220 0.383548
v -0.829723 0.103853 1.114428
v 0.000000 0.067452 -0.242954
v -0.824187 0.139369 -0.336145
v -1.591802 0.233018 -0.424146
v -2.089243 0.330333 -0.483082
v -1.608064 0.177356 -1.497458
v -0.816978 0.169963 -1.538863
v 0.000000 0.004903 1.068755
v -0.796852 0.099566 1.007743
v -1.496131 0.268769 0.580656
v -2.009027 0.414699 0.283091
v -2.342405 0.825919 0.074564
v -2.534265 1.053858 -0.746509
v -2.408145 0.679930 -1.293545
v -2.102507 0.234049 -1.339217
v -0.144631 3.838874 1.290430
v 0.000000 3.828051 1.323070
v -0.136153 3.533052 1.366205
v -0.129983 3.331615 1.314420
v -0.124793 3.124009 1.357209
v -0.186267 2.950662 1.409456
v -0.179231 2.744358 1.352711
v -0.152992 2.555251 1.275552
v -0.104090 2.378335 1.236568
v -0.098670 3.095718 1.490075
v -0.124850 2.945940 1.611639
v -0.114874 2.806444 1.589956
v -0.068394 3.409369 1.358478
v -0.066318 3.282094 1.370934
v 0.000000 0.127988 -1.512567
v 0.609894 1.640837 -1.294582
v 0.000000 1.486557 -1.214886
v 0.760176 1.087860 -1.556163
v 0.819170 0.171484 -1.647624
v 1.639320 0.175783 -1.604604
v 1.593128 1.203467 -1.379700
v 0.829723 0.103853 1.114428
v 0.000000 0.000000 1.171634
v 0.569757 0.905956 0.781109
v 0.432854 4.715321 0.290703
v 0.751929 4.382584 0.333723
v 0.674308 4.100333 0.792181
v 0.417399 4.425245 0.902557
v 1.289854 1.725187 -0.981908
v 1.785796 1.515365 -0.648127
v 1.469142 1.602535 -0.412497
v 1.472602 1.205541 0.151493
v 1.036981 1.365797 0.053573
v 0.429394 1.212554 0.433257
v 0.742356 3.966648 -0.551130
v 0.719347 4.283365 -0.462207
v 0.424896 4.502460 -0.601993
v 0.498480 4.110585 -0.864843
v 1.547571 0.286312 0.675000
v 0.000000 4.508174 0.953881
v 0.000000 4.778098 0.325419
v 0.000000 4.563449 -0.650434
v 2.041091 0.447220 0.383548
v 2.381907 0.902471 0.156683
v 2.605081 1.151226 -0.758965
v 2.460450 0.707961 -1.410610
v 2.135954 0.216875 -1.444865
v 0.444906 2.305494 0.769691
v 0.395254 2.263001 0.446867
v 0.192264 2.124552 0.558973
v 0.208411 2.080373 0.893215
v 0.000000 2.059370 0.576273
v 0.000000 2.024382 0.946269
v 0.000000 3.638809 -1.046611
v 0.000000 3.189945 -0.905210
v 0.386027 3.189350 -0.827013
v 0.488157 3.571475 -0.961955
v 0.320171 2.230484 -0.926663
v 0.308407 2.633185 -0.779725
v 0.429451 1.929302 -1.083980
v 0.000000 1.839495 -1.056530
v 0.619986 3.219419 -0.578349
v 0.711273 3.525308 -0.628982
v 0.616929 2.236972 -0.674770
v 0.515203 2.687096 -0.520682
v 0.946558 1.896895 -0.766000
v 0.754755 3.510705 -0.298777
v 0.783877 3.842212 -0.118161
v 0.665197 2.161597 -0.130271
v 0.631058 2.687135 -0.143650
v 1.005148 1.719810 -0.274556
v 0.714388 1.662304 0.100399
v 0.373975 1.640873 0.357251
v 0.000000 1.567904 0.429682
v 0.515261 2.072830 0.262446
v 0.248605 2.000824 0.393121
v 0.000000 1.907199 0.451711
v 0.537694 2.991617 -0.511224
v 0.624138 3.034219 -0.257140
v 0.693281 3.277265 -0.324842
v 0.425876 4.693633 -0.179289
v 0.760695 4.336942 -0.124043
v 0.822284 3.895385 0.281822
v 0.889524 3.425500 -0.076410
v 0.798063 3.376666 0.075026
v 0.812596 3.477968 0.121967
v 0.878048 3.522829 -0.002249
v 0.844428 3.124020 -0.019319
v 0.770325 3.123797 0.093249
v 0.788029 3.253087 0.069720
v 0.873147 3.277371 -0.083561
v 0.698067 2.633372 0.204432
v 0.597034 2.409903 0.304428
v 0.761963 3.368254 0.476623
v 0.773785 3.387639 0.685957
v 0.778745 3.655445 0.625983
v 0.767730 3.525496 0.410190
v 0.557820 2.538697 0.685265
v 0.657181 2.812768 0.600609
v 0.709428 3.074895 0.466474
v 0.654644 3.031564 0.702335
v 0.734167 3.201117 0.734283
v 0.691320 3.230356 0.507764
v 0.873839 3.583859 -0.016205
v 0.789644 3.613482 0.001326
v 0.790970 3.464506 -0.157144
v 0.889409 3.456608 -0.169024
v 0.843967 3.095801 -0.094287
v 0.885084 3.286310 -0.181365
v 0.765712 3.284419 -0.182864
v 0.708160 3.074147 -0.094748
v 0.761329 2.905632 0.145265
v 0.821130 2.931473 0.019895
v 0.705103 2.873598 -0.002595
v 0.698817 2.821468 0.168678
v 0.729496 2.985462 0.249413
v 0.744951 2.914863 0.346871
v 0.725517 3.103332 0.316307
v 0.718597 3.224686 0.341912
v 0.723499 3.338624 0.334876
v 0.834625 3.556755 0.172945
v 0.785492 3.625499 0.211006
v 0.793623 3.009263 0.135461
v 0.758561 3.030364 0.205931
v 0.742356 3.111189 0.205931
v 0.757177 3.332916 0.210314
v 0.739704 3.226097 0.203740
v 0.764616 3.447783 0.292318
v 0.000000 2.899738 -0.806483
v 0.327495 2.929103 -0.731976
v 0.835086 3.008302 0.045269
v 0.775746 3.407815 0.215273
v 0.642245 3.208042 1.032886
v 0.607529 3.385372 1.003245
v 0.466359 2.575609 1.040037
v 0.521258 2.777749 0.997017
v 0.098670 3.095718 1.490075
v 0.000000 3.091398 1.549704
v 0.000000 3.282083 1.394116
v 0.066318 3.282094 1.370934
v 0.608798 3.009550 1.023083
v 0.114874 2.806444 1.589956
v 0.000000 2.751346 1.605757
v 0.000000 2.931713 1.647624
v 0.124850 2.945940 1.611639
v 0.565143 3.616324 1.019046
v 0.571545 3.895603 1.014202
v 0.152992 2.555251 1.275552
v 0.000000 2.553858 1.293083
v 0.000000 2.719496 1.373933
v 0.179231 2.744358 1.352711
v 0.295720 2.542845 1.222844
v 0.332051 2.748373 1.295159
v 0.324612 2.916388 1.346022
v 0.368612 3.340977 1.205774
v 0.355175 3.137572 1.321340
v 0.311521 4.086166 1.198738
v 0.348140 3.550813 1.315342
v 0.000000 4.162923 1.240259
v 0.144631 3.838874 1.290430
v 0.417053 2.394855 1.026427
v 0.230901 2.206187 1.135419
v 0.000000 2.173156 1.255022
v 0.068394 3.409369 1.358478
v 0.000000 3.411654 1.377624
v 0.136153 3.533052 1.366205
v 0.104090 2.378335 1.236568
v 0.000000 2.359401 1.264595
v 1.608064 0.177356 -1.497458
v 0.816978 0.169963 -1.538863
v 0.824187 0.139369 -0.336145
v 1.591802 0.233018 -0.424146
v 2.102507 0.234049 -1.339217
v 2.089243 0.330333 -0.483082
v 0.796852 0.099566 1.007743
v 1.496131 0.268769 0.580656
v 2.009027 0.414699 0.283091
v 2.534265 1.053858 -0.746509
v 2.408145 0.679930 -1.293545
v 2.342405 0.825919 0.074564
v 0.129983 3.331615 1.314420
v 0.124793 3.124009 1.357209
v 0.186267 2.950662 1.409456
vn -0.292289 0.546809 -0.784581
vn -0.306011 0.684420 0.661760
vn -0.130147 -0.667424 -0.733217
vn -0.441418 0.896389 0.040464
vn -0.851253 0.052931 0.522079
vn -0.975037 0.215276 0.054400
vn -0.896118 -0.085159 -0.435568
vn -0.544478 -0.771751 -0.328549
vn -0.370235 0.840400 -0.395795
vn -0.469473 0.835387 0.285873
vn -0.384935 0.636793 0.668072
vn -0.001841 0.327202 -0.944952
vn -0.106337 0.606877 0.787650
vn -0.032555 -0.643356 -0.764875
vn -0.460899 0.864951 -0.198575
vn -0.171734 0.520507 0.836409
vn -0.009522 0.574300 -0.818590
vn -0.528155 0.325717 -0.784194
vn -0.926560 0.124848 -0.354823
vn -0.906802 0.404268 -0.119493
vn -0.117595 0.589632 -0.799066
vn -0.472342 -0.378086 -0.796206
vn -0.525417 0.807961 -0.266714
vn -0.844435 -0.357051 -0.399304
vn -0.651054 0.662702 0.370075
vn -0.536848 -0.246571 -0.806844
vn -0.600461 0.323374 0.731352
vn -0.354673 0.109826 0.928518
vn -0.285156 0.426525 -0.858349
vn -0.791276 0.469152 -0.392146
vn -0.965686 0.167805 0.198222
vn -0.736027 -0.104981 0.668763
vn -0.441173 -0.300279 0.845694
vn -0.498073 -0.170943 -0.850119
vn -0.863311 -0.211528 -0.458203
vn -0.792065 -0.450319 -0.412124
vn -0.846538 0.477066 -0.236181
vn -0.483124 0.855330 0.187088
vn -0.906879 0.398722 0.136346
vn -0.994631 -0.092241 0.046913
vn -0.980989 -0.194046 0.002477
vn -0.987628 -0.096289 0.123771
vn -0.761508 -0.561562 0.323657
vn -0.503321 -0.796681 0.334616
vn -0.972883 -0.198918 0.118028
vn -0.954464 -0.206681 0.215130
vn -0.874011 0.477987 -0.087373
vn -0.730722 -0.194996 -0.654234
vn -0.843361 -0.511331 -0.165173
vn -0.971503 -0.080284 0.223016
vn -0.989132 -0.077249 0.125099
vn -0.966857 -0.190008 0.170541
vn -0.979022 -0.058257 -0.195251
vn -0.913606 -0.288500 -0.286517
vn -0.995963 0.018141 -0.087913
vn -0.971370 0.016004 0.237032
vn -0.981112 -0.187999 0.045550
vn -0.932807 -0.360267 -0.008896
vn -0.891887 -0.390430 0.228260
vn -0.916600 -0.061469 0.395052
vn -0.967867 0.082145 0.237666
vn -0.982111 0.162316 0.095457
vn -0.999163 0.005198 0.040577
vn -0.522575 -0.126799 -0.843112
vn -0.912456 -0.159226 -0.376923
vn -0.642896 0.250839 -0.723716
vn -0.579287 -0.398131 -0.711279
vn -0.973611 -0.220063 -0.060452
vn -0.993429 -0.019346 0.112807
vn -0.981615 -0.054335 0.182975
vn -0.742249 0.326641 -0.585125
vn -0.738198 -0.388938 -0.551173
vn -0.986464 0.048101 0.156761
vn -0.972258 -0.211661 0.099569
vn -0.917244 -0.234682 -0.321852
vn -0.974101 -0.108353 -0.198460
vn -0.905950 0.130464 0.402783
vn -0.919578 -0.185548 0.346336
vn -0.961611 -0.126009 0.243775
vn -0.964019 -0.090540 0.249941
vn -0.953687 -0.081821 0.289458
vn -0.960678 0.001251 0.277662
vn -0.953787 -0.039223 0.297912
vn -0.908415 0.016536 0.417742
vn -0.935173 0.018244 0.353721
vn -0.963397 0.062843 0.260608
vn -0.970748 -0.057606 0.233088
vn -0.954387 -0.178832 0.239090
vn -0.937544 -0.265299 0.225004
vn -0.928296 -0.251492 0.273896
vn -0.857840 0.397003 -0.326343
vn -0.483444 0.687767 -0.541533
vn -0.874245 0.111888 -0.472415
vn -0.432724 0.198934 -0.879304
vn -0.924824 -0.317307 0.209802
vn -0.850525 -0.004118 0.525919
vn -0.809398 0.104609 0.577868
vn -0.906317 -0.360535 0.220463
vn -0.855009 -0.266635 0.444820
vn -0.879030 -0.241133 0.411291
vn -0.491245 0.199720 0.847815
vn -0.522228 0.062007 0.850549
vn -0.876568 -0.232290 0.421508
vn -0.964718 -0.199701 0.171576
vn -0.587125 -0.292894 0.754650
vn -0.570197 -0.108498 0.814312
vn -0.815816 0.043136 0.576701
vn -0.781088 0.163280 0.602695
vn -0.851563 0.278879 0.443923
vn -0.552886 -0.304329 0.775693
vn -0.431072 0.323948 0.842161
vn -0.532204 -0.016925 0.846447
vn -0.490994 0.648936 0.581211
vn -0.815843 -0.416551 0.401106
vn -0.792401 -0.591320 0.149804
vn -0.518304 -0.844823 0.132797
vn -0.551517 -0.474102 0.686335
vn 0.000000 0.272710 -0.962096
vn 0.000000 0.552278 0.833660
vn -0.000000 -0.638417 -0.769690
vn 0.000000 0.454288 0.890855
vn 0.000000 0.394383 -0.918946
vn 0.000000 0.203692 -0.979035
vn -0.000000 0.343924 -0.938998
vn 0.000000 0.973720 -0.227749
vn 0.000000 0.022742 0.999741
vn -0.505636 -0.425663 0.750428
vn -0.673220 -0.544311 0.500501
vn -0.351567 -0.510342 0.784826
vn 0.000000 -0.999306 -0.037262
vn -0.102427 -0.994644 -0.013852
vn -0.163690 -0.985359 0.047687
vn -0.568577 -0.816342 0.101518
vn -0.070400 -0.996269 0.049924
vn -0.046650 -0.998813 -0.013998
vn 0.000000 -0.999560 -0.029670
vn -0.160300 -0.986996 -0.011974
vn -0.257156 -0.965108 0.049370
vn -0.592483 -0.800967 0.086118
vn -0.824872 -0.561796 0.063017
vn -0.830553 -0.544963 0.114878
vn -0.811932 -0.549373 0.197372
vn -0.509814 -0.845691 0.157784
vn -0.197505 0.229750 0.952999
vn 0.000000 0.236804 0.971557
vn -0.302053 -0.037752 0.952543
vn -0.514648 0.040166 0.856460
vn -0.614497 0.326208 0.718319
vn -0.712712 0.063493 0.698577
vn -0.470513 -0.484775 0.737300
vn -0.239989 -0.322850 0.915518
vn -0.308300 -0.208768 0.928098
vn -0.629799 0.479262 0.611278
vn -0.709467 0.193038 0.677785
vn -0.615363 -0.510841 0.600309
vn -0.346208 -0.067909 0.935697
vn -0.525989 0.220279 0.821470
vn 0.000000 -0.999410 -0.034341
vn 0.009523 0.574300 -0.818590
vn 0.000000 0.421769 -0.906703
vn 0.001841 0.327202 -0.944952
vn 0.032555 -0.643356 -0.764875
vn 0.130147 -0.667424 -0.733217
vn 0.292289 0.546809 -0.784581
vn 0.351567 -0.510342 0.784826
vn -0.000000 -0.557470 0.830197
vn 0.106337 0.606877 0.787650
vn 0.483124 0.855330 0.187088
vn 0.906879 0.398722 0.136346
vn 0.851563 0.278879 0.443923
vn 0.490994 0.648936 0.581211
vn 0.370235 0.840400 -0.395795
vn 0.441418 0.896389 0.040464
vn 0.469473 0.835387 0.285873
vn 0.306011 0.684420 0.661760
vn 0.384935 0.636793 0.668072
vn 0.171734 0.520507 0.836409
vn 0.926560 0.124848 -0.354823
vn 0.857840 0.397003 -0.326343
vn 0.483444 0.687767 -0.541533
vn 0.528155 0.325717 -0.784194
vn 0.505636 -0.425663 0.750428
vn 0.000000 0.790646 0.612274
vn 0.000000 0.982064 0.188547
vn 0.000000 0.783338 -0.621596
vn 0.673220 -0.544311 0.500501
vn 0.851253 0.052931 0.522079
vn 0.975037 0.215276 0.054400
vn 0.896118 -0.085159 -0.435568
vn 0.544478 -0.771751 -0.328549
vn 0.792401 -0.591320 0.149804
vn 0.761507 -0.561562 0.323657
vn 0.503321 -0.796681 0.334616
vn 0.518304 -0.844823 0.132797
vn 0.000000 -0.942731 0.333555
vn 0.000000 -0.986830 0.161763
vn 0.000000 -0.086393 -0.996261
vn -0.000000 -0.342139 -0.939650
vn 0.472342 -0.378086 -0.796206
vn 0.522575 -0.126799 -0.843112
vn 0.285156 0.426525 -0.858349
vn 0.432724 0.198934 -0.879304
vn 0.117595 0.589632 -0.799066
vn -0.000000 0.421081 -0.907023
vn 0.844435 -0.357051 -0.399304
vn 0.912456 -0.159226 -0.376923
vn 0.791276 0.469152 -0.392146
vn 0.874245 0.111888 -0.472415
vn 0.525417 0.807961 -0.266714
vn 0.974101 -0.108353 -0.198460
vn 0.995963 0.018141 -0.087913
vn 0.965686 0.167805 0.198222
vn 0.979022 -0.058257 -0.195251
vn 0.651054 0.662702 0.370075
vn 0.600461 0.323374 0.731352
vn 0.354673 0.109826 0.928518
vn 0.000000 0.064681 0.997906
vn 0.736027 -0.104981 0.668763
vn 0.441173 -0.300279 0.845694
vn -0.000000 -0.383060 0.923724
vn 0.863311 -0.211528 -0.458203
vn 0.917244 -0.234682 -0.321852
vn 0.913606 -0.288500 -0.286517
vn 0.460899 0.864951 -0.198575
vn 0.906802 0.404268 -0.119493
vn 0.999163 0.005198 0.040577
vn 0.964019 -0.090540 0.249941
vn 0.919578 -0.185548 0.346336
vn 0.928296 -0.251492 0.273896
vn 0.961611 -0.126009 0.243775
vn 0.960678 0.001251 0.277662
vn 0.905950 0.130464 0.402783
vn 0.916600 -0.061469 0.395052
vn 0.953687 -0.081821 0.289457
vn 0.981112 -0.187999 0.045550
vn 0.924824 -0.317307 0.209802
vn 0.973611 -0.220063 -0.060452
vn 0.981615 -0.054335 0.182975
vn 0.971370 0.016004 0.237032
vn 0.994631 -0.092241 0.046913
vn 0.906317 -0.360535 0.220463
vn 0.954464 -0.206681 0.215130
vn 0.993429 -0.019346 0.112807
vn 0.964718 -0.199701 0.171576
vn 0.972883 -0.198918 0.118028
vn 0.980989 -0.194046 0.002477
vn 0.874011 0.477987 -0.087373
vn 0.846538 0.477066 -0.236181
vn 0.642896 0.250839 -0.723716
vn 0.742249 0.326641 -0.585125
vn 0.738198 -0.388938 -0.551173
vn 0.730722 -0.194996 -0.654234
vn 0.536848 -0.246571 -0.806844
vn 0.579287 -0.398131 -0.711279
vn 0.891887 -0.390430 0.228260
vn 0.843361 -0.511331 -0.165173
vn 0.792065 -0.450319 -0.412124
vn 0.932807 -0.360267 -0.008896
vn 0.971503 -0.080284 0.223016
vn 0.987628 -0.096289 0.123771
vn 0.986464 0.048101 0.156761
vn 0.989132 -0.077249 0.125099
vn 0.972258 -0.211661 0.099569
vn 0.967867 0.082145 0.237666
vn 0.982111 0.162316 0.095457
vn 0.908415 0.016536 0.417742
vn 0.935173 0.018244 0.353721
vn 0.963397 0.062843 0.260608
vn 0.954387 -0.178832 0.239090
vn 0.970748 -0.057606 0.233088
vn 0.966857 -0.190008 0.170541
vn -0.000000 -0.127403 -0.991851
vn 0.498073 -0.170943 -0.850119
vn 0.953787 -0.039223 0.297912
vn 0.937544 -0.265299 0.225004
vn 0.850525 -0.004118 0.525919
vn 0.809398 0.104609 0.577868
vn 0.855009 -0.266635 0.444820
vn 0.879030 -0.241133 0.411291
vn 0.629799 0.479262 0.611278
vn -0.000000 0.602440 0.798164
vn 0.000000 0.370913 0.928667
vn 0.525989 0.220279 0.821470
vn 0.876568 -0.232290 0.421508
vn 0.615363 -0.510841 0.600309
vn -0.000000 -0.694011 0.719965
vn 0.000000 0.213345 0.976977
vn 0.709467 0.193038 0.677785
vn 0.815816 0.043136 0.576701
vn 0.781088 0.163280 0.602695
vn 0.239989 -0.322850 0.915518
vn -0.000000 -0.311536 0.950234
vn 0.000000 -0.766435 0.642321
vn 0.470513 -0.484775 0.737300
vn 0.552886 -0.304329 0.775693
vn 0.587125 -0.292894 0.754650
vn 0.570197 -0.108498 0.814312
vn 0.522228 0.062007 0.850549
vn 0.491245 0.199720 0.847815
vn 0.431072 0.323948 0.842161
vn 0.532204 -0.016925 0.846447
vn 0.000000 0.441160 0.897429
vn 0.197505 0.229750 0.952999
vn 0.815843 -0.416551 0.401106
vn 0.551517 -0.474102 0.686335
vn -0.000000 -0.599130 0.800652
vn 0.346208 -0.067909 0.935697
vn 0.000000 -0.044625 0.999004
vn 0.302053 -0.037752 0.952543
vn 0.308300 -0.208768 0.928098
vn -0.000000 -0.174435 0.984669
vn 0.070400 -0.996269 0.049924
vn 0.046650 -0.998813 -0.013998
vn 0.102427 -0.994644 -0.013852
vn 0.163690 -0.985359 0.047687
vn 0.509814 -0.845691 0.157784
vn 0.568577 -0.816342 0.101518
vn 0.160300 -0.986996 -0.011974
vn 0.257156 -0.965108 0.049370
vn 0.592483 -0.800967 0.086118
vn 0.830553 -0.544963 0.114878
vn 0.811932 -0.549373 0.197372
vn 0.824872 -0.561796 0.063017
vn 0.514648 0.040166 0.856460
vn 0.614497 0.326208 0.718319
vn 0.712712 0.063493 0.698577
vt 0.136952 0.334077
vt 0.141686 0.266386
vt 0.213428 0.270922
vt 0.205391 0.325890
vt 0.025633 0.201960
vt 0.150414 0.194359
vt 0.034441 0.271954
vt 0.508683 0.070244
vt 0.442812 0.090453
vt 0.430153 0.010753
vt 0.509668 0.009041
vt 0.365583 0.803092
vt 0.407387 0.871373
vt 0.306106 0.918420
vt 0.298405 0.845053
vt 0.228243 0.154619
vt 0.277006 0.166002
vt 0.235485 0.208362
vt 0.316886 0.113609
vt 0.356881 0.147803
vt 0.448222 0.134283
vt 0.167128 0.912862
vt 0.113963 0.862137
vt 0.155004 0.809075
vt 0.183077 0.852324
vt 0.042263 0.343570
vt 0.347341 0.022696
vt 0.430081 0.942579
vt 0.324725 0.986038
vt 0.507852 0.122336
vt 0.144306 0.978715
vt 0.068231 0.930074
vt 0.233505 0.054946
vt 0.285818 0.027519
vt 0.151501 0.097415
vt 0.076945 0.127212
vt 0.025641 0.158023
vt 0.439581 0.418629
vt 0.460875 0.464084
vt 0.404571 0.488004
vt 0.376375 0.444896
vt 0.500482 0.407411
vt 0.500407 0.463236
vt 0.371276 0.356573
vt 0.397584 0.387899
vt 0.347579 0.409979
vt 0.330182 0.371439
vt 0.290271 0.294234
vt 0.331044 0.314099
vt 0.304352 0.332286
vt 0.273698 0.319657
vt 0.242834 0.320225
vt 0.254640 0.282167
vt 0.428807 0.362663
vt 0.404015 0.340731
vt 0.319720 0.265393
vt 0.363016 0.297900
vt 0.281720 0.229872
vt 0.213078 0.765101
vt 0.114666 0.749149
vt 0.168893 0.720912
vt 0.400097 0.278710
vt 0.376530 0.233561
vt 0.330041 0.192385
vt 0.392797 0.179844
vt 0.452256 0.174477
vt 0.507107 0.168879
vt 0.427792 0.214904
vt 0.468597 0.206341
vt 0.506609 0.199776
vt 0.430210 0.328835
vt 0.386676 0.321347
vt 0.413389 0.309575
vt 0.058155 0.795397
vt 0.006843 0.863616
vt 0.230839 0.997332
vt 0.234995 0.927370
vt 0.231804 0.846860
vt 0.277076 0.765523
vt 0.247817 0.690891
vt 0.226528 0.698427
vt 0.215921 0.681903
vt 0.242254 0.672522
vt 0.242232 0.651075
vt 0.216097 0.656870
vt 0.226159 0.630028
vt 0.246628 0.628692
vt 0.435049 0.244023
vt 0.434461 0.262111
vt 0.454378 0.229826
vt 0.482264 0.221877
vt 0.506311 0.217415
vt 0.327350 0.726082
vt 0.292217 0.701922
vt 0.302770 0.674655
vt 0.333464 0.680789
vt 0.332818 0.570549
vt 0.280663 0.524468
vt 0.320857 0.478496
vt 0.366742 0.522791
vt 0.341459 0.648504
vt 0.308229 0.647066
vt 0.303936 0.618212
vt 0.340798 0.614394
vt 0.191826 0.698497
vt 0.202553 0.687009
vt 0.223978 0.707978
vt 0.224075 0.722191
vt 0.185846 0.656004
vt 0.199246 0.610980
vt 0.214514 0.626372
vt 0.202304 0.659938
vt 0.226385 0.578717
vt 0.253592 0.587465
vt 0.233062 0.597885
vt 0.280605 0.622590
vt 0.271114 0.600480
vt 0.287334 0.586744
vt 0.282212 0.666543
vt 0.283935 0.645537
vt 0.253467 0.706358
vt 0.260489 0.720114
vt 0.426923 0.286370
vt 0.440920 0.276731
vt 0.432886 0.303029
vt 0.444759 0.320455
vt 0.461868 0.329731
vt 0.453521 0.341236
vt 0.260281 0.566615
vt 0.263218 0.610017
vt 0.263884 0.624879
vt 0.251174 0.607551
vt 0.263358 0.645692
vt 0.263316 0.665256
vt 0.274604 0.687101
vt 0.320410 0.348873
vt 0.354635 0.334108
vt 0.236174 0.609865
vt 0.263102 0.679199
vt 0.387198 0.685738
vt 0.385865 0.655597
vt 0.396226 0.581463
vt 0.415065 0.551231
vt 0.485892 0.649616
vt 0.500142 0.647082
vt 0.500104 0.681599
vt 0.487937 0.681278
vt 0.387701 0.622272
vt 0.486942 0.605166
vt 0.500212 0.596821
vt 0.500168 0.623729
vt 0.485808 0.625860
vt 0.398687 0.771633
vt 0.395341 0.724689
vt 0.474607 0.557040
vt 0.500280 0.555800
vt 0.500248 0.575646
vt 0.468058 0.585054
vt 0.447670 0.587714
vt 0.452107 0.554347
vt 0.450889 0.615211
vt 0.444657 0.649984
vt 0.435073 0.684003
vt 0.449091 0.718002
vt 0.448386 0.806535
vt 0.499915 0.819349
vt 0.477046 0.767488
vt 0.499992 0.764956
vt 0.499816 0.891608
vt 0.465759 0.501941
vt 0.428193 0.523064
vt 0.500344 0.509890
vt 0.488374 0.699779
vt 0.500081 0.699963
vt 0.500059 0.715522
vt 0.479880 0.718125
vt 0.483429 0.531668
vt 0.500317 0.530878
vt 0.803627 0.389898
vt 0.802128 0.452307
vt 0.771213 0.446597
vt 0.771885 0.390821
vt 0.836370 0.392339
vt 0.835276 0.458269
vt 0.751640 0.398234
vt 0.751008 0.442882
vt 0.834145 0.526410
vt 0.801989 0.522108
vt 0.773592 0.498923
vt 0.752373 0.482953
vt 0.730017 0.402492
vt 0.716265 0.432617
vt 0.730584 0.473978
vt 0.770787 0.385221
vt 0.803660 0.384257
vt 0.836480 0.385759
vt 0.834056 0.531762
vt 0.800551 0.527605
vt 0.771338 0.503743
vt 0.750742 0.488256
vt 0.727397 0.478560
vt 0.711408 0.432397
vt 0.727554 0.396470
vt 0.750804 0.392509
vt 0.475848 0.687439
vt 0.474011 0.656325
vt 0.466216 0.623960
vt 0.872119 0.340626
vt 0.803960 0.331253
vt 0.797600 0.276163
vt 0.869457 0.272874
vt 0.987445 0.210476
vt 0.976501 0.280293
vt 0.862928 0.200724
vt 0.589093 0.012211
vt 0.573878 0.091660
vt 0.634290 0.803508
vt 0.701353 0.845676
vt 0.693451 0.919019
vt 0.592301 0.871660
vt 0.786339 0.159653
vt 0.777443 0.213246
vt 0.737229 0.170183
vt 0.657949 0.150573
vt 0.699013 0.117092
vt 0.567074 0.135387
vt 0.832445 0.913890
vt 0.816658 0.853304
vt 0.844847 0.810140
vt 0.885748 0.863326
vt 0.966489 0.351753
vt 0.671467 0.025653
vt 0.674649 0.986578
vt 0.569411 0.942795
vt 0.931297 0.931400
vt 0.855088 0.979812
vt 0.732803 0.031576
vt 0.784216 0.059923
vt 0.864839 0.103807
vt 0.938442 0.134873
vt 0.988784 0.166556
vt 0.561353 0.418816
vt 0.624489 0.445277
vt 0.596175 0.488299
vt 0.539937 0.464204
vt 0.637450 0.359181
vt 0.678136 0.374664
vt 0.659722 0.412935
vt 0.610317 0.390107
vt 0.720101 0.298138
vt 0.735925 0.323825
vt 0.704961 0.335935
vt 0.678788 0.317332
vt 0.766726 0.324935
vt 0.756068 0.286688
vt 0.579780 0.364399
vt 0.605149 0.342840
vt 0.691495 0.268818
vt 0.647281 0.300621
vt 0.730556 0.233951
vt 0.786894 0.765989
vt 0.831198 0.721938
vt 0.885347 0.750338
vt 0.610731 0.280831
vt 0.635617 0.236029
vt 0.683380 0.195644
vt 0.621029 0.181981
vt 0.561757 0.175510
vt 0.584926 0.216429
vt 0.544396 0.207081
vt 0.579283 0.330546
vt 0.596605 0.311522
vt 0.622993 0.323710
vt 0.941734 0.796754
vt 0.992863 0.865128
vt 0.768503 0.998161
vt 0.764539 0.928187
vt 0.767949 0.847689
vt 0.722895 0.766214
vt 0.752359 0.691674
vt 0.757971 0.673321
vt 0.784278 0.682786
vt 0.773626 0.699276
vt 0.758053 0.651875
vt 0.753720 0.629475
vt 0.774184 0.630877
vt 0.784172 0.657753
vt 0.576854 0.263654
vt 0.576778 0.245490
vt 0.557859 0.230878
vt 0.530212 0.222359
vt 0.672733 0.726615
vt 0.666746 0.681304
vt 0.697455 0.675262
vt 0.707932 0.702566
vt 0.667697 0.571064
vt 0.633907 0.523203
vt 0.679914 0.479050
vt 0.719978 0.525146
vt 0.658838 0.648994
vt 0.659596 0.614884
vt 0.696444 0.618816
vt 0.692072 0.647657
vt 0.808328 0.699455
vt 0.776015 0.723047
vt 0.776150 0.708834
vt 0.797633 0.687935
vt 0.814424 0.656982
vt 0.797956 0.660864
vt 0.785838 0.627261
vt 0.801148 0.611917
vt 0.774102 0.579565
vt 0.767371 0.598712
vt 0.746871 0.588225
vt 0.713133 0.587400
vt 0.729315 0.601186
vt 0.719762 0.623267
vt 0.716369 0.646203
vt 0.718035 0.667214
vt 0.739607 0.720859
vt 0.746666 0.707125
vt 0.583688 0.288078
vt 0.569974 0.278190
vt 0.577283 0.304683
vt 0.564956 0.321953
vt 0.555650 0.342605
vt 0.547608 0.330981
vt 0.740242 0.567355
vt 0.737183 0.610749
vt 0.749233 0.608317
vt 0.736477 0.625608
vt 0.736932 0.665989
vt 0.736944 0.646423
vt 0.725584 0.687799
vt 0.654674 0.336971
vt 0.688489 0.352257
vt 0.764225 0.610680
vt 0.737107 0.679933
vt 0.612998 0.686083
vt 0.614411 0.655947
vt 0.604259 0.581785
vt 0.585508 0.551494
vt 0.514387 0.649657
vt 0.512274 0.681314
vt 0.612669 0.622619
vt 0.513454 0.605210
vt 0.514522 0.625908
vt 0.601271 0.771945
vt 0.604747 0.725010
vt 0.525951 0.557120
vt 0.532409 0.585159
vt 0.552796 0.587878
vt 0.548456 0.554496
vt 0.549496 0.615362
vt 0.565128 0.684199
vt 0.555635 0.650150
vt 0.551480 0.806693
vt 0.551018 0.718156
vt 0.522928 0.767558
vt 0.572459 0.523285
vt 0.534950 0.502047
vt 0.511788 0.699812
vt 0.520231 0.718184
vt 0.517200 0.531720
vt 0.869165 0.391716
vt 0.900846 0.394398
vt 0.899668 0.450161
vt 0.868591 0.454151
vt 0.920826 0.402927
vt 0.919977 0.447570
vt 0.866415 0.523896
vt 0.895555 0.502307
vt 0.917284 0.487528
vt 0.942288 0.408379
vt 0.955027 0.439239
vt 0.939351 0.479770
vt 0.902129 0.388864
vt 0.869319 0.386079
vt 0.867669 0.529469
vt 0.897647 0.507247
vt 0.918738 0.492917
vt 0.942384 0.484524
vt 0.959886 0.439288
vt 0.944947 0.402500
vt 0.921851 0.397254
vt 0.524345 0.687509
vt 0.526260 0.656400
vt 0.534136 0.624063
g Bust
usemtl Default
f 118/1/118 12/2/12 17/3/17 160/4/160 
f 3/5/3 1/6/1 12/2/12 14/7/14 
f 119/8/119 13/9/13 129/10/129 166/11/166 
f 109/12/109 113/13/113 38/14/38 39/15/39 
f 4/16/4 10/17/10 9/18/9 1/6/1 
f 10/17/10 4/16/4 2/19/2 11/20/11 
f 11/20/11 2/19/2 13/9/13 16/21/16 
f 92/22/92 18/23/18 19/24/19 91/25/91 
f 12/2/12 1/6/1 9/18/9 17/3/17 
f 118/1/118 120/26/120 14/7/14 12/2/12 
f 13/9/13 2/19/2 127/27/127 129/10/129 
f 38/14/38 113/13/113 183/28/183 184/29/184 
f 119/8/119 121/30/121 16/21/16 13/9/13 
f 18/23/18 92/22/92 185/31/185 122/32/122 
f 2/19/2 5/33/5 128/34/128 127/27/127 
f 4/16/4 6/35/6 5/33/5 2/19/2 
f 7/36/7 6/35/6 4/16/4 1/6/1 
f 8/37/8 7/36/7 1/6/1 3/5/3 
f 44/38/44 116/39/116 115/40/115 43/41/43 
f 195/42/195 196/43/196 116/39/116 44/38/44 
f 22/44/22 64/45/64 197/46/197 198/47/198 
f 29/48/29 94/49/94 123/50/123 124/51/124 
f 204/52/204 160/4/160 17/3/17 21/53/21 
f 65/54/65 64/45/64 22/44/22 24/55/24 
f 30/56/30 93/57/93 94/49/94 29/48/29 
f 21/53/21 17/3/17 9/18/9 23/58/23 
f 55/59/55 19/24/19 65/60/65 76/61/76 
f 53/62/53 93/57/93 30/56/30 31/63/31 
f 23/58/23 9/18/9 10/17/10 25/64/25 
f 10/17/10 11/20/11 27/65/27 25/64/25 
f 11/20/11 16/21/16 28/66/28 27/65/27 
f 16/21/16 121/30/121 217/67/217 28/66/28 
f 124/51/124 204/52/204 21/53/21 29/48/29 
f 29/48/29 21/53/21 23/58/23 30/56/30 
f 30/56/30 23/58/23 25/64/25 31/63/31 
f 31/63/31 25/64/25 27/65/27 32/68/32 
f 32/68/32 27/65/27 28/66/28 33/69/33 
f 33/69/33 28/66/28 217/67/217 220/70/220 
f 54/71/54 24/55/24 35/72/35 75/73/75 
f 64/74/64 18/23/18 122/32/122 197/75/197 
f 19/24/19 18/23/18 64/74/64 65/60/65 
f 125/76/125 15/77/15 38/14/38 184/29/184 
f 15/77/15 20/78/20 39/15/39 38/14/38 
f 39/15/39 20/78/20 55/59/55 63/79/63 
f 90/80/90 79/81/79 80/82/80 78/83/78 
f 60/84/60 81/85/81 82/86/82 77/87/77 
f 31/63/31 95/88/95 57/89/57 53/62/53 
f 43/90/43 32/68/32 33/69/33 44/91/44 
f 44/91/44 33/69/33 220/70/220 195/92/195 
f 56/93/56 40/94/40 68/95/68 70/96/70 
f 46/97/46 57/98/57 95/99/95 98/100/98 
f 45/101/45 41/102/41 69/103/69 104/104/104 
f 39/15/39 63/79/63 56/93/56 109/12/109 
f 66/105/66 71/106/71 47/107/47 37/108/37 
f 26/109/26 67/110/67 72/111/72 48/112/48 
f 36/113/36 58/129/58 59/114/59 49/115/49 
f 69/103/69 73/116/73 50/117/50 42/118/42 
f 68/95/68 74/119/74 51/120/51 41/102/41 
f 37/108/37 47/107/47 61/121/61 62/122/62 
f 36/123/36 53/62/53 57/89/57 58/124/58 
f 36/123/36 67/125/67 75/73/75 53/62/53 
f 26/126/26 66/127/66 76/128/76 54/71/54 
f 37/108/37 62/122/62 63/79/63 55/59/55 
f 57/98/57 46/97/46 42/118/42 58/129/58 
f 58/129/58 42/118/42 50/117/50 59/114/59 
f 85/130/85 86/131/86 77/87/77 84/132/84 
f 60/84/60 87/133/87 88/134/88 78/83/78 
f 52/135/52 40/94/40 62/122/62 61/121/61 
f 40/94/40 56/93/56 63/79/63 62/122/62 
f 65/54/65 24/55/24 54/71/54 76/128/76 
f 22/44/22 198/47/198 272/136/272 34/137/34 
f 24/55/24 22/44/22 34/137/34 35/72/35 
f 81/85/81 60/84/60 78/83/78 80/82/80 
f 83/138/83 84/132/84 77/87/77 82/86/82 
f 41/102/41 45/101/45 70/96/70 68/95/68 
f 42/118/42 46/97/46 104/104/104 69/103/69 
f 26/109/26 48/112/48 71/106/71 66/105/66 
f 67/110/67 36/113/36 49/115/49 72/111/72 
f 41/102/41 51/120/51 73/116/73 69/103/69 
f 40/94/40 52/135/52 74/119/74 68/95/68 
f 26/126/26 54/71/54 75/73/75 67/125/67 
f 66/105/66 37/108/37 55/59/55 76/61/76 
f 87/133/87 60/84/60 77/87/77 86/131/86 
f 89/139/89 90/80/90 78/83/78 88/134/88 
f 47/107/47 71/106/71 80/82/80 79/81/79 
f 71/106/71 48/112/48 81/85/81 80/82/80 
f 48/112/48 72/111/72 82/86/82 81/85/81 
f 72/111/72 49/115/49 83/138/83 82/86/82 
f 49/115/49 59/114/59 84/132/84 83/138/83 
f 59/114/59 50/117/50 85/130/85 84/132/84 
f 50/117/50 73/116/73 86/131/86 85/130/85 
f 73/116/73 51/120/51 87/133/87 86/131/86 
f 51/120/51 74/119/74 88/134/88 87/133/87 
f 74/119/74 52/135/52 89/139/89 88/134/88 
f 52/135/52 61/121/61 90/80/90 89/139/89 
f 61/121/61 47/107/47 79/81/79 90/80/90 
f 91/25/91 19/24/19 55/59/55 20/78/20 
f 20/78/20 15/77/15 92/22/92 91/25/91 
f 15/77/15 125/76/125 185/31/185 92/22/92 
f 53/62/53 75/73/75 35/72/35 93/57/93 
f 93/57/93 35/72/35 34/137/34 94/49/94 
f 94/49/94 34/137/34 272/136/272 123/50/123 
f 43/90/43 95/88/95 31/63/31 32/68/32 
f 43/41/43 115/40/115 98/100/98 95/99/95 
f 97/140/97 70/96/70 45/101/45 96/141/96 
f 100/142/100 46/97/46 98/100/98 99/143/99 
f 153/144/153 281/145/281 282/146/282 157/147/157 
f 103/148/103 104/104/104 46/97/46 100/142/100 
f 155/149/155 286/150/286 287/151/287 154/152/154 
f 108/153/108 109/12/109 56/93/56 107/154/107 
f 151/155/151 292/156/292 293/157/293 150/158/150 
f 105/159/105 100/142/100 99/143/99 110/160/110 
f 100/142/100 105/159/105 106/161/106 103/148/103 
f 96/141/96 101/162/101 102/163/102 97/140/97 
f 107/154/107 112/164/112 111/165/111 108/153/108 
f 302/166/302 111/165/111 144/167/144 145/168/145 
f 108/153/108 111/165/111 113/13/113 109/12/109 
f 111/165/111 302/166/302 183/169/183 113/13/113 
f 116/39/116 117/170/117 114/171/114 115/40/115 
f 196/43/196 306/172/306 117/170/117 116/39/116 
f 107/154/107 56/93/56 70/96/70 97/140/97 
f 156/173/156 308/174/308 126/175/126 146/176/146 
f 96/141/96 45/101/45 104/104/104 103/148/103 
f 154/152/154 287/151/287 281/145/281 153/144/153 
f 101/162/101 96/141/96 103/148/103 106/161/106 
f 112/164/112 107/154/107 97/140/97 102/163/102 
f 115/40/115 114/171/114 99/143/99 98/100/98 
f 114/171/114 117/170/117 110/160/110 99/143/99 
f 292/156/292 151/155/151 152/177/152 311/178/311 
f 135/179/135 131/180/131 132/181/132 134/182/134 
f 158/183/158 130/184/130 131/180/131 135/179/135 
f 143/185/143 134/182/134 132/181/132 133/186/133 
f 130/184/130 136/187/136 137/188/137 131/180/131 
f 131/180/131 137/188/137 138/189/138 132/181/132 
f 132/181/132 138/189/138 139/190/139 133/186/133 
f 142/191/142 143/185/143 133/186/133 141/192/141 
f 133/186/133 139/190/139 140/193/140 141/192/141 
f 3/194/3 14/195/14 135/179/135 134/182/134 
f 14/195/14 120/196/120 158/183/158 135/179/135 
f 166/197/166 129/198/129 137/188/137 136/187/136 
f 129/198/129 127/199/127 138/189/138 137/188/137 
f 127/199/127 128/200/128 139/190/139 138/189/138 
f 128/200/128 5/201/5 140/193/140 139/190/139 
f 5/201/5 6/202/6 141/192/141 140/193/140 
f 6/202/6 7/203/7 142/191/142 141/192/141 
f 7/203/7 8/204/8 143/185/143 142/191/142 
f 8/204/8 3/194/3 134/182/134 143/185/143 
f 144/167/144 146/176/146 126/175/126 145/168/145 
f 144/167/144 111/165/111 112/164/112 146/176/146 
f 112/164/112 102/163/102 147/205/147 146/176/146 
f 147/205/147 102/163/102 101/162/101 148/206/148 
f 148/206/148 101/162/101 106/161/106 149/207/149 
f 149/207/149 106/161/106 105/159/105 150/158/150 
f 150/158/150 105/159/105 110/160/110 151/155/151 
f 151/155/151 110/160/110 117/170/117 152/177/152 
f 306/172/306 311/178/311 152/177/152 117/170/117 
f 147/205/147 148/206/148 153/144/153 157/147/157 
f 148/206/148 149/207/149 154/152/154 153/144/153 
f 149/207/149 150/158/150 155/149/155 154/152/154 
f 150/158/150 293/157/293 286/150/286 155/149/155 
f 147/205/147 157/147/157 156/173/156 146/176/146 
f 156/173/156 157/147/157 282/146/282 308/174/308 
f 118/208/118 160/209/160 159/210/159 161/211/161 
f 163/212/163 162/213/162 161/211/161 164/214/164 
f 119/8/119 166/11/166 165/215/165 167/216/167 
f 170/217/170 169/218/169 168/219/168 171/220/171 
f 173/221/173 164/214/164 172/222/172 174/223/174 
f 174/223/174 176/224/176 175/225/175 173/221/173 
f 176/224/176 177/226/177 167/216/167 175/225/175 
f 180/227/180 179/228/179 178/229/178 181/230/181 
f 161/211/161 159/210/159 172/222/172 164/214/164 
f 118/208/118 161/211/161 162/213/162 120/231/120 
f 167/216/167 165/215/165 182/232/182 175/225/175 
f 168/219/168 184/233/184 183/234/183 171/220/171 
f 119/8/119 167/216/167 177/226/177 121/30/121 
f 181/230/181 122/235/122 185/236/185 180/227/180 
f 175/225/175 182/232/182 186/237/186 187/238/187 
f 173/221/173 175/225/175 187/238/187 188/239/188 
f 189/240/189 164/214/164 173/221/173 188/239/188 
f 190/241/190 163/212/163 164/214/164 189/240/189 
f 193/242/193 192/243/192 191/244/191 194/245/194 
f 195/42/195 193/242/193 194/245/194 196/43/196 
f 199/246/199 198/247/198 197/248/197 200/249/200 
f 201/250/201 124/251/124 123/252/123 202/253/202 
f 204/254/204 203/255/203 159/210/159 160/209/160 
f 206/256/206 205/257/205 199/246/199 200/249/200 
f 207/258/207 201/250/201 202/253/202 208/259/208 
f 203/255/203 209/260/209 172/222/172 159/210/159 
f 211/261/211 210/262/210 206/263/206 178/229/178 
f 213/264/213 212/265/212 207/258/207 208/259/208 
f 209/260/209 214/266/214 174/223/174 172/222/172 
f 174/223/174 214/266/214 215/267/215 176/224/176 
f 176/224/176 215/267/215 216/268/216 177/226/177 
f 177/226/177 216/268/216 217/67/217 121/30/121 
f 124/251/124 201/250/201 203/255/203 204/254/204 
f 201/250/201 207/258/207 209/260/209 203/255/203 
f 207/258/207 212/265/212 214/266/214 209/260/209 
f 212/265/212 218/269/218 215/267/215 214/266/214 
f 218/269/218 219/270/219 216/268/216 215/267/215 
f 219/270/219 220/70/220 217/67/217 216/268/216 
f 223/271/223 222/272/222 221/273/221 205/257/205 
f 200/274/200 197/275/197 122/235/122 181/230/181 
f 178/229/178 206/263/206 200/274/200 181/230/181 
f 125/276/125 184/233/184 168/219/168 224/277/224 
f 224/277/224 168/219/168 169/218/169 225/278/225 
f 169/218/169 226/279/226 211/261/211 225/278/225 
f 229/280/229 228/281/228 227/282/227 230/283/230 
f 233/284/233 232/285/232 231/286/231 234/287/234 
f 212/265/212 213/264/213 235/288/235 236/289/236 
f 192/290/192 193/291/193 219/270/219 218/269/218 
f 193/291/193 195/92/195 220/70/220 219/270/219 
f 239/292/239 238/293/238 237/294/237 240/295/240 
f 242/296/242 241/297/241 236/298/236 235/299/235 
f 245/300/245 244/301/244 243/302/243 246/303/246 
f 169/218/169 170/217/170 239/292/239 226/279/226 
f 249/304/249 248/305/248 247/306/247 250/307/250 
f 253/308/253 252/309/252 251/310/251 254/311/254 
f 257/312/257 256/313/256 255/314/255 258/328/258 
f 243/302/243 260/315/260 259/316/259 261/317/261 
f 237/294/237 246/303/246 262/318/262 263/319/263 
f 248/305/248 265/320/265 264/321/264 247/306/247 
f 257/322/257 258/323/258 235/288/235 213/264/213 
f 257/322/257 213/264/213 222/272/222 254/324/254 
f 253/325/253 223/271/223 210/326/210 249/327/249 
f 248/305/248 211/261/211 226/279/226 265/320/265 
f 235/299/235 258/328/258 260/315/260 242/296/242 
f 258/328/258 255/314/255 259/316/259 260/315/260 
f 267/329/267 266/330/266 232/285/232 268/331/268 
f 233/284/233 228/281/228 269/332/269 270/333/270 
f 271/334/271 264/321/264 265/320/265 240/295/240 
f 240/295/240 265/320/265 226/279/226 239/292/239 
f 206/256/206 210/326/210 223/271/223 205/257/205 
f 199/246/199 273/335/273 272/336/272 198/247/198 
f 205/257/205 221/273/221 273/335/273 199/246/199 
f 234/287/234 227/282/227 228/281/228 233/284/233 
f 274/337/274 231/286/231 232/285/232 266/330/266 
f 246/303/246 237/294/237 238/293/238 245/300/245 
f 260/315/260 243/302/243 244/301/244 242/296/242 
f 253/308/253 249/304/249 250/307/250 252/309/252 
f 254/311/254 251/310/251 256/313/256 257/312/257 
f 246/303/246 243/302/243 261/317/261 262/318/262 
f 240/295/240 237/294/237 263/319/263 271/334/271 
f 253/325/253 254/324/254 222/272/222 223/271/223 
f 249/304/249 210/262/210 211/261/211 248/305/248 
f 270/333/270 268/331/268 232/285/232 233/284/233 
f 275/338/275 269/332/269 228/281/228 229/280/229 
f 247/306/247 230/283/230 227/282/227 250/307/250 
f 250/307/250 227/282/227 234/287/234 252/309/252 
f 252/309/252 234/287/234 231/286/231 251/310/251 
f 251/310/251 231/286/231 274/337/274 256/313/256 
f 256/313/256 274/337/274 266/330/266 255/314/255 
f 255/314/255 266/330/266 267/329/267 259/316/259 
f 259/316/259 267/329/267 268/331/268 261/317/261 
f 261/317/261 268/331/268 270/333/270 262/318/262 
f 262/318/262 270/333/270 269/332/269 263/319/263 
f 263/319/263 269/332/269 275/338/275 271/334/271 
f 271/334/271 275/338/275 229/280/229 264/321/264 
f 264/321/264 229/280/229 230/283/230 247/306/247 
f 179/228/179 225/278/225 211/261/211 178/229/178 
f 225/278/225 179/228/179 180/227/180 224/277/224 
f 224/277/224 180/227/180 185/236/185 125/276/125 
f 213/264/213 208/259/208 221/273/221 222/272/222 
f 208/259/208 202/253/202 273/335/273 221/273/221 
f 202/253/202 123/252/123 272/336/272 273/335/273 
f 192/290/192 218/269/218 212/265/212 236/289/236 
f 192/243/192 236/298/236 241/297/241 191/244/191 
f 277/339/277 276/340/276 245/300/245 238/293/238 
f 279/341/279 278/342/278 241/297/241 242/296/242 
f 280/343/280 283/344/283 282/146/282 281/145/281 
f 284/345/284 279/341/279 242/296/242 244/301/244 
f 285/346/285 288/347/288 287/151/287 286/150/286 
f 290/348/290 289/349/289 239/292/239 170/217/170 
f 291/350/291 294/351/294 293/157/293 292/156/292 
f 296/352/296 295/353/295 278/342/278 279/341/279 
f 279/341/279 284/345/284 297/354/297 296/352/296 
f 276/340/276 277/339/277 298/355/298 299/356/299 
f 289/349/289 290/348/290 300/357/300 301/358/301 
f 302/166/302 145/168/145 303/359/303 300/357/300 
f 290/348/290 170/217/170 171/220/171 300/357/300 
f 300/357/300 171/220/171 183/169/183 302/166/302 
f 194/245/194 191/244/191 304/360/304 305/361/305 
f 196/43/196 194/245/194 305/361/305 306/172/306 
f 289/349/289 277/339/277 238/293/238 239/292/239 
f 307/362/307 309/363/309 126/175/126 308/174/308 
f 276/340/276 284/345/284 244/301/244 245/300/245 
f 288/347/288 280/343/280 281/145/281 287/151/287 
f 299/356/299 297/354/297 284/345/284 276/340/276 
f 301/358/301 298/355/298 277/339/277 289/349/289 
f 191/244/191 241/297/241 278/342/278 304/360/304 
f 304/360/304 278/342/278 295/353/295 305/361/305 
f 292/156/292 311/178/311 310/364/310 291/350/291 
f 313/365/313 312/366/312 315/367/315 314/368/314 
f 158/183/158 313/365/313 314/368/314 130/184/130 
f 316/369/316 317/370/317 315/367/315 312/366/312 
f 130/184/130 314/368/314 318/371/318 136/187/136 
f 314/368/314 315/367/315 319/372/319 318/371/318 
f 315/367/315 317/370/317 320/373/320 319/372/319 
f 322/374/322 321/375/321 317/370/317 316/369/316 
f 317/370/317 321/375/321 323/376/323 320/373/320 
f 163/377/163 312/366/312 313/365/313 162/378/162 
f 162/378/162 313/365/313 158/183/158 120/196/120 
f 166/197/166 136/187/136 318/371/318 165/379/165 
f 165/379/165 318/371/318 319/372/319 182/380/182 
f 182/380/182 319/372/319 320/373/320 186/381/186 
f 186/381/186 320/373/320 323/376/323 187/382/187 
f 187/382/187 323/376/323 321/375/321 188/383/188 
f 188/383/188 321/375/321 322/374/322 189/384/189 
f 189/384/189 322/374/322 316/369/316 190/385/190 
f 190/385/190 316/369/316 312/366/312 163/377/163 
f 303/359/303 145/168/145 126/175/126 309/363/309 
f 303/359/303 309/363/309 301/358/301 300/357/300 
f 301/358/301 309/363/309 324/386/324 298/355/298 
f 324/386/324 325/387/325 299/356/299 298/355/298 
f 325/387/325 326/388/326 297/354/297 299/356/299 
f 326/388/326 294/351/294 296/352/296 297/354/297 
f 294/351/294 291/350/291 295/353/295 296/352/296 
f 305/361/305 295/353/295 291/350/291 310/364/310 
f 306/172/306 305/361/305 310/364/310 311/178/311 
f 324/386/324 283/344/283 280/343/280 325/387/325 
f 325/387/325 280/343/280 288/347/288 326/388/326 
f 326/388/326 288/347/288 285/346/285 294/351/294 
f 294/351/294 285/346/285 286/150/286 293/157/293 
f 324/386/324 309/363/309 307/362/307 283/344/283 
f 307/362/307 308/174/308 282/146/282 283/344/283 
