mtllib SubD_Cube.mtl
o SubD_Cube.obj
v -0.277778 0.222222 -0.277778
v 0.277778 0.222222 -0.277778
v -0.277778 0.777778 -0.277778
v 0.277778 0.777778 -0.277778
v -0.277778 0.222222 0.277778
v 0.277778 0.222222 0.277778
v -0.277778 0.777778 0.277778
v 0.277778 0.777778 0.277778
v 0.000000 0.500000 -0.500000
v 0.000000 0.500000 0.500000
v 0.000000 0.000000 0.000000
v 0.500000 0.500000 0.000000
v 0.000000 1.000000 0.000000
v -0.500000 0.500000 0.000000
v 0.375000 0.500000 -0.375000
v 0.000000 0.125000 -0.375000
v -0.375000 0.500000 -0.375000
v 0.000000 0.875000 -0.375000
v 0.375000 0.500000 0.375000
v 0.000000 0.875000 0.375000
v -0.375000 0.500000 0.375000
v 0.000000 0.125000 0.375000
v -0.375000 0.125000 0.000000
v 0.375000 0.125000 0.000000
v 0.375000 0.875000 0.000000
v -0.375000 0.875000 0.000000
vn 0.348155 0.348155 -0.870388
vn 0.348155 -0.348155 -0.870388
vn -0.348155 -0.348155 -0.870388
vn -0.348155 0.348155 -0.870388
vn 0.348155 -0.348155 0.870388
vn 0.348155 0.348155 0.870388
vn -0.348155 0.348155 0.870388
vn -0.348155 -0.348155 0.870388
vn 0.348155 -0.870388 0.348155
vn -0.348155 -0.870388 0.348155
vn -0.348155 -0.870388 -0.348155
vn 0.348155 -0.870388 -0.348155
vn 0.870388 0.348155 0.348155
vn 0.870388 -0.348155 0.348155
vn 0.870388 -0.348155 -0.348155
vn 0.870388 0.348155 -0.348155
vn -0.348155 0.870388 0.348155
vn 0.348155 0.870388 0.348155
vn 0.348155 0.870388 -0.348155
vn -0.348155 0.870388 -0.348155
vn -0.870388 -0.348155 0.348155
vn -0.870388 0.348155 0.348155
vn -0.870388 0.348155 -0.348155
vn -0.870388 -0.348155 -0.348155
vt 0.747525 0.623762
vt 0.747525 0.500000
vt 0.871287 0.500000
vt 0.871287 0.623762
vt 0.747525 0.376238
vt 0.871287 0.376238
vt 0.995049 0.376238
vt 0.995049 0.500000
vt 0.995049 0.623762
vt 0.500000 0.376238
vt 0.500000 0.500000
vt 0.376238 0.500000
vt 0.376238 0.376238
vt 0.500000 0.623762
vt 0.376238 0.623762
vt 0.252475 0.623762
vt 0.252475 0.500000
vt 0.252475 0.376238
vt 0.376238 0.252475
vt 0.500000 0.252475
vt 0.252475 0.252475
vt 0.252475 0.128713
vt 0.376238 0.128713
vt 0.500000 0.128713
vt 0.623762 0.500000
vt 0.623762 0.623762
vt 0.623762 0.376238
vt 0.376238 0.747525
vt 0.252475 0.747525
vt 0.500000 0.747525
vt 0.500000 0.871287
vt 0.376238 0.871287
vt 0.252475 0.871287
vt 0.128713 0.500000
vt 0.128713 0.376238
vt 0.128713 0.623762
vt 0.004950 0.623762
vt 0.004950 0.500000
vt 0.004950 0.376238
g Cube
usemtl Default
f 4/1/1 15/2/1 9/3/1 18/4/1 
f 15/2/2 2/5/2 16/6/2 9/3/2 
f 9/3/3 16/6/3 1/7/3 17/8/3 
f 18/4/4 9/3/4 17/8/4 3/9/4 
f 6/10/5 19/11/5 10/12/5 22/13/5 
f 19/11/6 8/14/6 20/15/6 10/12/6 
f 10/12/7 20/15/7 7/16/7 21/17/7 
f 22/13/8 10/12/8 21/17/8 5/18/8 
f 6/10/9 22/13/9 11/19/9 24/20/9 
f 22/13/10 5/18/10 23/21/10 11/19/10 
f 11/19/11 23/21/11 1/22/11 16/23/11 
f 24/20/12 11/19/12 16/23/12 2/24/12 
f 8/14/13 19/11/13 12/25/13 25/26/13 
f 19/11/14 6/10/14 24/27/14 12/25/14 
f 12/25/15 24/27/15 2/5/15 15/2/15 
f 25/26/16 12/25/16 15/2/16 4/1/16 
f 7/16/17 20/15/17 13/28/17 26/29/17 
f 20/15/18 8/14/18 25/30/18 13/28/18 
f 13/28/19 25/30/19 4/31/19 18/32/19 
f 26/29/20 13/28/20 18/32/20 3/33/20 
f 5/18/21 21/17/21 14/34/21 23/35/21 
f 21/17/22 7/16/22 26/36/22 14/34/22 
f 14/34/23 26/36/23 3/37/23 17/38/23 
f 23/35/24 14/34/24 17/38/24 1/39/24 
